<svg xmlns="http://www.w3.org/2000/svg" role="img" aria-hidden="true" width="100%" viewBox="0 0 139 38" fill="#001437"><path fill-rule="evenodd" clip-rule="evenodd" d="M106.789 11.8629C106.59 11.9315 106.359 12.1128 106.236 12.2949C105.848 12.8732 106.054 13.638 106.685 13.9578C106.853 14.0426 106.9 14.0517 107.168 14.0517C107.437 14.0517 107.484 14.0426 107.651 13.9578C107.888 13.838 108.096 13.6294 108.199 13.4098C108.268 13.2623 108.28 13.1945 108.28 12.9393C108.28 12.6655 108.272 12.624 108.177 12.432C108.062 12.1992 107.878 12.0161 107.645 11.904C107.45 11.8103 107.003 11.7888 106.789 11.8629ZM55.4943 17.9351V23.9637H56.2929H57.0915V17.9351V11.9065H56.2929H55.4943V17.9351ZM123.328 17.9346V23.9637H124.127H124.925V21.457C124.925 18.7207 124.925 18.7205 125.108 18.271C125.306 17.7848 125.65 17.4398 126.106 17.2695C126.274 17.2069 126.396 17.187 126.684 17.1752C127.306 17.1498 127.749 17.2955 128.093 17.6374C128.284 17.8286 128.385 18.0032 128.5 18.3422L128.574 18.5615L128.583 21.2626L128.591 23.9637H129.389H130.187V21.2666C130.187 18.9824 130.179 18.519 130.138 18.2399C129.928 16.8278 129.097 15.9417 127.81 15.7565C127.277 15.6799 126.554 15.7588 126.084 15.945C125.689 16.1014 125.273 16.3956 125.047 16.6784L124.926 16.831L124.918 14.3766L124.91 11.9221L124.119 11.9138L123.328 11.9054V17.9346ZM44.0947 18.0583V23.9637L46.3104 23.9631C48.0649 23.9626 48.5972 23.953 48.8672 23.9171C50.3403 23.7211 51.4401 22.8413 51.7658 21.5983C51.9487 20.9005 51.9057 20.2173 51.636 19.5365C51.3595 18.8387 50.7716 18.266 50.0552 17.9965L49.7921 17.8976L49.9264 17.8461C50.1455 17.7621 50.5424 17.4906 50.7513 17.2817C51.3567 16.6763 51.6213 15.7808 51.4745 14.8347C51.2602 13.4533 50.356 12.5565 48.8644 12.2461C48.5358 12.1777 48.4631 12.1754 46.3104 12.1643L44.0947 12.1529V18.0583ZM82.9911 18.0604V23.9637H83.821H84.651V22.1835V20.4033L85.473 19.5226C86.1346 18.8137 86.3027 18.6496 86.3345 18.6814C86.3563 18.7031 87.2521 19.897 88.3252 21.3345L90.2765 23.9481L91.3158 23.9563C91.8874 23.9608 92.3551 23.9563 92.3551 23.9462C92.3551 23.9361 91.9716 23.425 91.5029 22.8105C91.0343 22.196 89.9333 20.749 89.0563 19.5949C88.1793 18.4409 87.4494 17.4811 87.4342 17.462C87.4055 17.4258 87.4036 17.4278 90.5835 14.0246C91.5148 13.0279 92.2815 12.1999 92.2872 12.1847C92.2931 12.169 91.8317 12.157 91.2211 12.157H90.1446L87.4056 15.1687L84.6666 18.1803L84.6586 15.1687L84.6506 12.157H83.8209H82.9911V18.0604ZM134.879 14.2788L134.869 15.1165L134.781 15.3044C134.566 15.7649 134.214 15.9464 133.536 15.9464H133.224V16.6667V17.387H133.992H134.759L134.759 19.7124C134.759 21.18 134.772 22.1122 134.792 22.2396C134.939 23.1459 135.465 23.7425 136.314 23.9671C136.737 24.0791 137.439 24.0627 137.961 23.9288L138.079 23.8987V23.2265C138.079 22.7663 138.068 22.5544 138.045 22.5544C138.026 22.5544 137.878 22.5702 137.715 22.5894C137.356 22.6317 137.022 22.5915 136.802 22.4793C136.628 22.3908 136.547 22.3082 136.446 22.116L136.372 21.9751L136.363 19.6811L136.354 17.387H137.216H138.079V16.6667V15.9464H137.217H136.356V14.6937V13.441H135.623H134.889L134.879 14.2788ZM45.7546 15.4747V17.3244L46.7332 17.323C47.2715 17.3223 47.8528 17.3098 48.0251 17.2952C48.7164 17.2368 49.2412 16.9488 49.5797 16.4421C49.8945 15.9708 49.9251 15.1124 49.6458 14.5874C49.5087 14.3299 49.161 14.0018 48.8863 13.8709C48.4282 13.6525 48.4123 13.6505 47.0151 13.6371L45.7546 13.6251V15.4747ZM75.2087 15.7165C74.7399 15.7542 74.2461 15.8863 73.8725 16.0737C72.7716 16.6262 72.0269 17.594 71.7233 18.8669C71.6449 19.1956 71.6392 19.2671 71.6389 19.9394C71.6385 20.5799 71.6466 20.6957 71.7113 20.9848C71.9019 21.8359 72.2231 22.4571 72.7613 23.0156C73.4624 23.7429 74.3873 24.1489 75.4647 24.2024C76.798 24.2685 78.07 23.6692 78.7633 22.6483C78.9645 22.3521 79.2735 21.6988 79.2283 21.6652C79.1988 21.6433 77.8818 21.2024 77.8749 21.2122C77.8706 21.2184 77.8262 21.3218 77.7762 21.4421C77.5047 22.095 77.028 22.5259 76.366 22.717C76.1567 22.7774 76.0444 22.7888 75.6628 22.7883C75.1392 22.7876 74.9452 22.7466 74.551 22.553C73.8318 22.1998 73.3473 21.4805 73.2648 20.6435L73.2433 20.4248H76.2505H79.2578L79.279 20.1821C79.3066 19.8658 79.2506 19.1421 79.1667 18.7305C78.9241 17.5402 78.2699 16.6112 77.3406 16.1372C77.0724 16.0004 76.6278 15.8452 76.3518 15.792C76.1671 15.7564 75.5002 15.6932 75.3966 15.7014C75.3622 15.7042 75.2776 15.711 75.2087 15.7165ZM98.9918 15.7588C98.7254 15.8039 98.3661 15.9152 98.1708 16.0131C97.7749 16.2114 97.3782 16.5532 97.1599 16.8838L97.0684 17.0225L97.0598 16.4845L97.0512 15.9464H96.269H95.4868V19.9551V23.9637H96.2854H97.084V21.4797C97.084 19.8826 97.0958 18.9294 97.1169 18.8099C97.2667 17.9642 97.7374 17.4024 98.4508 17.2176C98.8752 17.1078 99.5178 17.1764 99.9057 17.373C100.152 17.4978 100.416 17.778 100.544 18.0507C100.76 18.5131 100.757 18.4599 100.771 21.3565L100.784 23.9637H101.565H102.345L102.345 21.2939C102.345 19.5398 102.333 18.5274 102.311 18.3422C102.215 17.5589 101.947 16.9602 101.484 16.4928C101.097 16.1015 100.652 15.8756 100.068 15.7739C99.788 15.7251 99.237 15.7174 98.9918 15.7588ZM114.894 15.8249C113.23 15.9852 111.973 17.191 111.656 18.933C111.593 19.2792 111.586 20.0525 111.643 20.3935C111.788 21.2562 112.122 21.9535 112.649 22.4919C112.959 22.8093 113.163 22.9639 113.528 23.1587C114.347 23.5965 115.321 23.6995 116.212 23.4429C116.723 23.2959 117.225 22.9675 117.501 22.5992C117.578 22.4971 117.653 22.3994 117.669 22.3822C117.685 22.3638 117.69 22.7137 117.682 23.2278C117.671 23.9011 117.655 24.1519 117.616 24.3082C117.394 25.18 116.946 25.656 116.134 25.881C115.928 25.9381 115.805 25.9488 115.342 25.95C114.82 25.9513 114.782 25.9472 114.544 25.8635C114.208 25.7455 113.969 25.595 113.717 25.3428C113.453 25.0785 113.235 24.6679 113.157 24.2847C113.128 24.1426 113.094 24.0264 113.082 24.0264C113.033 24.0264 111.603 24.3724 111.588 24.3881C111.578 24.3975 111.596 24.5272 111.626 24.6763C111.819 25.6113 112.398 26.3836 113.265 26.863C113.879 27.202 114.532 27.3549 115.358 27.3529C116.34 27.3506 117.123 27.1353 117.793 26.6836C118.37 26.2949 118.864 25.5828 119.084 24.8248C119.278 24.1556 119.267 24.416 119.279 19.9942L119.29 15.9464H118.506H117.722V16.4824V17.0184L117.595 16.8279C117.208 16.2477 116.533 15.9 115.641 15.821C115.261 15.7873 115.285 15.7872 114.894 15.8249ZM61.2037 18.7102C61.2127 20.5836 61.2284 21.5306 61.2523 21.6497C61.4775 22.7716 62.0185 23.5247 62.8901 23.9299C63.3448 24.1413 63.6355 24.1993 64.2163 24.1944C64.6481 24.1908 64.7591 24.179 65.02 24.1091C65.1864 24.0645 65.4009 23.9934 65.4965 23.951C65.8797 23.7816 66.2664 23.4713 66.4642 23.1744L66.5415 23.0584L66.5623 23.378C66.5737 23.5537 66.5912 23.7574 66.6011 23.8306L66.6192 23.9637H67.3854H68.1516L68.1336 23.8776C68.0735 23.5891 68.0536 22.4808 68.0531 19.3992L68.0527 15.9464H67.2551H66.4575L66.4486 18.6476L66.4398 21.3487L66.3478 21.6123C66.0733 22.3989 65.4669 22.805 64.5671 22.805C63.7087 22.805 63.1163 22.3458 62.8761 21.4942C62.8098 21.259 62.8084 21.2083 62.7986 18.6006L62.7886 15.9464H61.9895H61.1904L61.2037 18.7102ZM106.385 19.9551V23.9637H107.168H107.951V19.9551V15.9464H107.168H106.385V19.9551ZM75.0365 17.1477C74.5626 17.2591 74.2486 17.4238 73.9532 17.7157C73.6078 18.0571 73.3653 18.5296 73.3223 18.9451L73.3052 19.1095H75.4716H77.638L77.6181 18.9451C77.5094 18.0472 76.999 17.435 76.1634 17.2002C75.8669 17.1169 75.2831 17.0897 75.0365 17.1477ZM115.04 17.2001C114.381 17.3183 113.815 17.749 113.513 18.362C113.283 18.8298 113.234 19.0601 113.233 19.6889C113.232 20.1328 113.243 20.2666 113.299 20.494C113.564 21.559 114.299 22.179 115.358 22.2325C116.482 22.2891 117.318 21.6895 117.648 20.591C117.765 20.2005 117.788 19.4838 117.698 19.0453C117.555 18.3537 117.24 17.8533 116.733 17.5148C116.387 17.2829 116.083 17.1942 115.593 17.1814C115.377 17.1758 115.129 17.1842 115.04 17.2001ZM45.7546 20.6317V22.5298L47.0621 22.5132C48.4205 22.4959 48.5791 22.4822 48.9597 22.3492C49.5363 22.1478 49.9447 21.7397 50.1166 21.1934C50.2036 20.9169 50.2077 20.3937 50.1252 20.0829C49.9326 19.3564 49.3823 18.8988 48.5418 18.7663C48.4271 18.7482 47.7743 18.7341 47.0464 18.734L45.7546 18.7337V20.6317Z" fill="#001437"></path><path d="M7.51098 3.90916C10.6028 1.62279 14.3245 0.335924 18.1955 0.214725C19.0015 0.189483 20.7967 0.196592 20.7792 0.224966C20.7685 0.24219 20.7333 0.256283 20.701 0.256283C20.5905 0.256283 19.2772 0.598678 18.7122 0.774808C16.4127 1.49154 14.2468 2.61305 12.4027 4.04185C10.8408 5.25203 9.44155 6.72116 8.36084 8.28554C6.62382 10.7999 5.48846 13.6838 5.05994 16.6699C4.89841 17.7956 4.87151 18.2181 4.87066 19.6418C4.86969 21.2787 4.89706 21.5745 5.1601 22.7712C5.17513 22.8396 5.15687 22.8318 4.97636 22.693C4.86612 22.6083 4.55044 22.3485 4.27485 22.1157C3.99925 21.883 3.66788 21.6065 3.53844 21.5012C2.67934 20.8023 1.62914 19.3895 0.210141 17.0237L0.00162857 16.676L0.0652347 16.2407C0.361436 14.214 1.06216 12.0819 2.03 10.2622C3.36463 7.75311 5.21807 5.60476 7.51098 3.90916Z" fill="#001437"></path><path d="M28.0585 3.2597C27.832 2.99441 27.4475 2.57654 27.2041 2.33107C26.9608 2.0856 26.7813 1.8848 26.8053 1.8848C26.8805 1.8848 27.833 2.39133 28.4208 2.74396C33.507 5.7952 36.8893 11.1099 37.5005 17.0112C37.9518 21.3679 36.9076 25.6406 34.4963 29.3033C33.2841 31.1448 31.7975 32.7151 29.9552 34.1002C26.6816 36.5616 22.557 37.8896 18.4774 37.7956C16.2168 37.7435 14.1888 37.3422 12.1211 36.538C11.3988 36.257 10.1166 35.665 10.1525 35.629C10.1593 35.6223 10.3334 35.6445 10.5395 35.6783C11.1678 35.7816 12.1045 35.8898 12.7149 35.9296C13.5481 35.9839 14.8652 35.9198 16.0189 35.7689C20.2023 35.2215 24.1239 33.2701 27.201 30.2045C30.0697 27.3466 31.9642 23.6566 32.6477 19.5957C32.9874 17.5778 33.0088 15.4238 32.7092 13.4174C32.1422 9.62064 30.5848 6.21899 28.0585 3.2597Z" fill="#001437"></path><path d="M0.032258 20.3783C0.0145323 20.103 0 19.867 0 19.8538C0 19.7994 0.0372683 19.8414 0.191069 20.0693C0.668286 20.7765 1.21694 21.4523 1.95133 22.2375C3.56005 23.9574 5.29335 25.2521 7.34396 26.2655C8.16311 26.6703 8.57164 26.8451 9.39408 27.1427C10.8702 27.6767 12.4984 28.0397 14.1712 28.2077C14.7284 28.2637 16.3334 28.3244 16.6453 28.3013C16.7658 28.2924 17.1041 28.2702 17.3969 28.2521C19.1182 28.1452 20.6295 27.8504 22.2824 27.2992C23.2583 26.9737 23.8672 26.7227 24.7878 26.2663C26.5209 25.407 28.0746 24.3102 29.4072 23.0054C29.6914 22.7272 29.9521 22.4905 29.9866 22.4795C30.021 22.4685 30.0915 22.3963 30.1431 22.3191C30.2219 22.2013 30.2841 22.1441 30.2841 22.1894C30.2841 22.1953 30.1871 22.4384 30.0685 22.7296C29.2467 24.7485 28.3818 26.2566 27.2653 27.6173C26.8798 28.0871 25.4113 29.5443 24.8862 29.9781C23.6781 30.9761 22.6847 31.6198 21.3116 32.2942C19.3746 33.2456 17.4051 33.8169 15.2516 34.0523C14.1417 34.1736 12.3021 34.1636 11.1177 34.0298C9.44471 33.8409 7.83014 33.4318 6.47212 32.8527C5.71285 32.529 5.66168 32.4964 5.24265 32.0695C2.15537 28.9239 0.317342 24.7997 0.032258 20.3783Z" fill="#001437"></path></svg>